<svg width="300" height="200" viewBox="0 0 300 200" fill="none" xmlns="http://www.w3.org/2000/svg">
    <!-- Background -->
    <rect width="300" height="200" fill="#f8fafc" />

    <!-- Header -->
    <rect x="50" y="20" width="200" height="8" rx="4" fill="#ef4444" />
    <rect x="75" y="35" width="150" height="12" rx="6" fill="#1f2937" />

    <!-- Benefits Grid (2x2) -->
    <!-- Benefit 1 -->
    <rect x="30" y="65" width="60" height="60" rx="12" fill="#ffffff" stroke="#e5e7eb" />
    <circle cx="60" cy="85" r="8" fill="#ef4444" />
    <rect x="35" y="100" width="50" height="4" rx="2" fill="#6b7280" />
    <rect x="35" y="108" width="40" height="3" rx="1.5" fill="#9ca3af" />
    <rect x="35" y="115" width="45" height="3" rx="1.5" fill="#9ca3af" />

    <!-- Benefit 2 -->
    <rect x="110" y="65" width="60" height="60" rx="12" fill="#ffffff" stroke="#e5e7eb" />
    <circle cx="140" cy="85" r="8" fill="#ef4444" />
    <rect x="115" y="100" width="50" height="4" rx="2" fill="#6b7280" />
    <rect x="115" y="108" width="40" height="3" rx="1.5" fill="#9ca3af" />
    <rect x="115" y="115" width="45" height="3" rx="1.5" fill="#9ca3af" />

    <!-- Benefit 3 -->
    <rect x="190" y="65" width="60" height="60" rx="12" fill="#ffffff" stroke="#e5e7eb" />
    <circle cx="220" cy="85" r="8" fill="#ef4444" />
    <rect x="195" y="100" width="50" height="4" rx="2" fill="#6b7280" />
    <rect x="195" y="108" width="40" height="3" rx="1.5" fill="#9ca3af" />
    <rect x="195" y="115" width="45" height="3" rx="1.5" fill="#9ca3af" />

    <!-- Benefit 4 -->
    <rect x="70" y="140" width="60" height="60" rx="12" fill="#ffffff" stroke="#e5e7eb" />
    <circle cx="100" cy="160" r="8" fill="#ef4444" />
    <rect x="75" y="175" width="50" height="4" rx="2" fill="#6b7280" />
    <rect x="75" y="183" width="40" height="3" rx="1.5" fill="#9ca3af" />
    <rect x="75" y="190" width="45" height="3" rx="1.5" fill="#9ca3af" />

    <!-- CTA -->
    <rect x="150" y="140" width="80" height="60" rx="12" fill="#ffffff" stroke="#e5e7eb" />
    <rect x="165" y="165" width="50" height="10" rx="5" fill="#ef4444" />
</svg>