<svg width="200" height="150" xmlns="http://www.w3.org/2000/svg">
    <rect width="200" height="150" fill="#f9fafb" />

    <!-- Title -->
    <rect x="50" y="15" width="100" height="8" rx="4" fill="#d1d5db" />
    <rect x="65" y="27" width="70" height="6" rx="3" fill="#e5e7eb" />

    <!-- 4 feature boxes in a row -->
    <g>
        <g>
            <circle cx="25" cy="70" r="8" fill="#ef4444" />
            <rect x="15" y="83" width="20" height="5" rx="2.5" fill="#374151" />
            <rect x="12" y="91" width="26" height="3" rx="1.5" fill="#9ca3af" />
            <rect x="10" y="96" width="30" height="3" rx="1.5" fill="#d1d5db" />
        </g>

        <g>
            <circle cx="70" cy="70" r="8" fill="#ef4444" />
            <rect x="60" y="83" width="20" height="5" rx="2.5" fill="#374151" />
            <rect x="57" y="91" width="26" height="3" rx="1.5" fill="#9ca3af" />
            <rect x="55" y="96" width="30" height="3" rx="1.5" fill="#d1d5db" />
        </g>

        <g>
            <circle cx="115" cy="70" r="8" fill="#ef4444" />
            <rect x="105" y="83" width="20" height="5" rx="2.5" fill="#374151" />
            <rect x="102" y="91" width="26" height="3" rx="1.5" fill="#9ca3af" />
            <rect x="100" y="96" width="30" height="3" rx="1.5" fill="#d1d5db" />
        </g>

        <g>
            <circle cx="160" cy="70" r="8" fill="#ef4444" />
            <rect x="150" y="83" width="20" height="5" rx="2.5" fill="#374151" />
            <rect x="147" y="91" width="26" height="3" rx="1.5" fill="#9ca3af" />
            <rect x="145" y="96" width="30" height="3" rx="1.5" fill="#d1d5db" />
        </g>
    </g>

    <!-- Footer indicators -->
    <circle cx="90" cy="130" r="3" fill="#ef4444" />
    <circle cx="100" cy="130" r="3" fill="#e5e7eb" />
    <circle cx="110" cy="130" r="3" fill="#e5e7eb" />
</svg>