<!-- Product Showcase thumbnail for Sanity Studio -->
<svg width="300" height="200" xmlns="http://www.w3.org/2000/svg">
    <rect width="300" height="200" fill="#f9fafb" />
    <rect x="20" y="20" width="80" height="60" fill="#e5e7eb" rx="4" />
    <rect x="110" y="20" width="80" height="60" fill="#e5e7eb" rx="4" />
    <rect x="200" y="20" width="80" height="60" fill="#e5e7eb" rx="4" />

    <rect x="25" y="90" width="70" height="8" fill="#6366f1" rx="2" />
    <rect x="25" y="105" width="50" height="6" fill="#9ca3af" rx="1" />
    <rect x="25" y="115" width="60" height="6" fill="#9ca3af" rx="1" />

    <rect x="115" y="90" width="70" height="8" fill="#6366f1" rx="2" />
    <rect x="115" y="105" width="50" height="6" fill="#9ca3af" rx="1" />
    <rect x="115" y="115" width="60" height="6" fill="#9ca3af" rx="1" />

    <rect x="205" y="90" width="70" height="8" fill="#6366f1" rx="2" />
    <rect x="205" y="105" width="50" height="6" fill="#9ca3af" rx="1" />
    <rect x="205" y="115" width="60" height="6" fill="#9ca3af" rx="1" />

    <text x="120" y="190" fill="#6b7280" font-size="10" font-family="Arial">Product Showcase</text>
</svg>